{
    "accessors" : [
        {
            "bufferView" : 0, 
            "componentType" : 5123, 
            "count" : 140448, 
            "max" : [
                24671
            ], 
            "min" : [
                0
            ], 
            "type" : "SCALAR"
        }, 
        {
            "bufferView" : 1, 
            "componentType" : 5126, 
            "count" : 24672, 
            "max" : [
                5.892685890197754, 
                5.63903284072876, 
                7.715353012084961
            ], 
            "min" : [
                -5.892704010009766, 
                -5.971062183380127, 
                -5.887664794921875
            ], 
            "type" : "VEC3"
        }, 
        {
            "bufferView" : 2, 
            "componentType" : 5126, 
            "count" : 24672, 
            "max" : [
                1.0, 
                1.0, 
                1.0
            ], 
            "min" : [
                -1.0, 
                -1.0, 
                -1.0
            ], 
            "type" : "VEC3"
        }, 
        {
            "bufferView" : 3, 
            "componentType" : 5126, 
            "count" : 24672, 
            "max" : [
                1.0, 
                0.9998981356620789, 
                1.0, 
                1.0
            ], 
            "min" : [
                -0.9999986886978149, 
                -0.9999996423721313, 
                -0.9999974966049194, 
                1.0
            ], 
            "type" : "VEC4"
        }, 
        {
            "bufferView" : 4, 
            "componentType" : 5126, 
            "count" : 24672, 
            "max" : [
                0.9900000095367432, 
                0.9475760012865067
            ], 
            "min" : [
                0.009999999776482582, 
                0.009999990463256836
            ], 
            "type" : "VEC2"
        }
    ], 
    "asset" : {
        "generator" : "Khronos Blender glTF 2.0 exporter", 
        "version" : "2.0"
    }, 
    "bufferViews" : [
        {
            "buffer" : 0, 
            "byteLength" : 280896, 
            "byteOffset" : 0, 
            "target" : 34963
        }, 
        {
            "buffer" : 0, 
            "byteLength" : 296064, 
            "byteOffset" : 280896, 
            "target" : 34962
        }, 
        {
            "buffer" : 0, 
            "byteLength" : 296064, 
            "byteOffset" : 576960, 
            "target" : 34962
        }, 
        {
            "buffer" : 0, 
            "byteLength" : 394752, 
            "byteOffset" : 873024, 
            "target" : 34962
        }, 
        {
            "buffer" : 0, 
            "byteLength" : 197376, 
            "byteOffset" : 1267776, 
            "target" : 34962
        }
    ], 
    "buffers" : [
        {
            "byteLength" : 1465152, 
            "uri" : "material_ball.bin"
        }
    ], 
    "meshes" : [
        {
            "name" : "temp:pCylinder7", 
            "primitives" : [
                {
                    "attributes" : {
                        "NORMAL" : 2, 
                        "POSITION" : 1, 
                        "TANGENT" : 3, 
                        "TEXCOORD_0" : 4
                    }, 
                    "indices" : 0
                }
            ]
        }
    ], 
    "nodes" : [
        {
            "name" : "Camera", 
            "rotation" : [
                0.483536034822464, 
                0.33687159419059753, 
                -0.20870360732078552, 
                0.7804827094078064
            ], 
            "translation" : [
                7.481131553649902, 
                5.34366512298584, 
                6.5076398849487305
            ]
        }, 
        {
            "name" : "Lamp", 
            "rotation" : [
                0.16907575726509094, 
                0.7558802962303162, 
                -0.27217137813568115, 
                0.570947527885437
            ], 
            "scale" : [
                1.0, 
                1.0, 
                0.9999999403953552
            ], 
            "translation" : [
                4.076245307922363, 
                5.903861999511719, 
                -1.0054539442062378
            ]
        }, 
        {
            "mesh" : 0, 
            "name" : "temp:pCylinder7", 
            "rotation" : [
                0.7071068286895752, 
                0.0, 
                -0.0, 
                0.7071067094802856
            ]
        }
    ], 
    "scene" : 0, 
    "scenes" : [
        {
            "name" : "Scene", 
            "nodes" : [
                2, 
                1, 
                0
            ]
        }
    ]
}
